HIERARCHY
ROOT joint_Root
{
	OFFSET 0.0 0.0 0.0
	CHANNELS 6 Xposition Yposition Zposition Zrotation Xrotation Yrotation 
	JOINT Hips
	{
		OFFSET 4.5925 91.4895 -427.239
		CHANNELS 6 Xposition Yposition Zposition Zrotation Xrotation Yrotation 
		JOINT Spine
		{
			OFFSET 15.7357 0.0 0.0
			CHANNELS 6 Xposition Yposition Zposition Zrotation Xrotation Yrotation 
			JOINT Chest
			{
				OFFSET 8.98455 -0.406207 0.0
				CHANNELS 6 Xposition Yposition Zposition Zrotation Xrotation Yrotation 
				JOINT Neck
				{
					OFFSET 16.3773 0.0 0.0
					CHANNELS 6 Xposition Yposition Zposition Zrotation Xrotation Yrotation 
					JOINT Head
					{
						OFFSET 6.45672 0.0 0.0
						CHANNELS 6 Xposition Yposition Zposition Zrotation Xrotation Yrotation 
						End Site
						{
							OFFSET 0.0 0.0 0.0
						}
					}
				}
				JOINT Shoulder_L
				{
					OFFSET 12.9942 -0.242716 4.98039
					CHANNELS 6 Xposition Yposition Zposition Zrotation Xrotation Yrotation 
					JOINT UpperArm_L
					{
						OFFSET 5.34809 0.0 0.0
						CHANNELS 6 Xposition Yposition Zposition Zrotation Xrotation Yrotation 
						JOINT LowerArm_L
						{
							OFFSET 24.3286 1.87007e-05 0.0
							CHANNELS 6 Xposition Yposition Zposition Zrotation Xrotation Yrotation 
							JOINT Hand_L
							{
								OFFSET 22.2916 0.0 0.0
								CHANNELS 6 Xposition Yposition Zposition Zrotation Xrotation Yrotation 
								End Site
								{
									OFFSET 0.0 0.0 0.0
								}
							}
						}
					}
				}
				JOINT Shoulder_R
				{
					OFFSET 12.9945 -0.242716 -4.98039
					CHANNELS 6 Xposition Yposition Zposition Zrotation Xrotation Yrotation 
					JOINT UpperArm_R
					{
						OFFSET -5.34813 0.0 0.0
						CHANNELS 6 Xposition Yposition Zposition Zrotation Xrotation Yrotation 
						JOINT LowerArm_R
						{
							OFFSET -24.3289 0.000322201 0.0
							CHANNELS 6 Xposition Yposition Zposition Zrotation Xrotation Yrotation 
							JOINT Hand_R
							{
								OFFSET -22.2915 -0.000108084 0.0
								CHANNELS 6 Xposition Yposition Zposition Zrotation Xrotation Yrotation 
								End Site
								{
									OFFSET 0.0 0.0 0.0
								}
							}
						}
					}
				}
			}
		}
		JOINT UpperLeg_L
		{
			OFFSET -2.19248 -6.46944 0.0
			CHANNELS 6 Xposition Yposition Zposition Zrotation Xrotation Yrotation 
			JOINT LowerLeg_L
			{
				OFFSET 39.0811 0.0 -1.23785e-05
				CHANNELS 6 Xposition Yposition Zposition Zrotation Xrotation Yrotation 
				JOINT Foot_L
				{
					OFFSET 40.9854 0.0 -1.26872e-05
					CHANNELS 6 Xposition Yposition Zposition Zrotation Xrotation Yrotation 
					JOINT Toes_L
					{
						OFFSET 11.7543 0.0 0.0
						CHANNELS 6 Xposition Yposition Zposition Zrotation Xrotation Yrotation 
						End Site
						{
							OFFSET 0.0 0.0 0.0
						}
					}
				}
			}
		}
		JOINT UpperLeg_R
		{
			OFFSET -2.19251 6.46944 0.0
			CHANNELS 6 Xposition Yposition Zposition Zrotation Xrotation Yrotation 
			JOINT LowerLeg_R
			{
				OFFSET -39.0811 -0.00228153 -0.0401928
				CHANNELS 6 Xposition Yposition Zposition Zrotation Xrotation Yrotation 
				JOINT Foot_R
				{
					OFFSET -40.9854 0.0 0.0
					CHANNELS 6 Xposition Yposition Zposition Zrotation Xrotation Yrotation 
					JOINT Toes_R
					{
						OFFSET -11.7543 0.0 0.0
						CHANNELS 6 Xposition Yposition Zposition Zrotation Xrotation Yrotation 
						End Site
						{
							OFFSET 0.0 0.0 0.0
						}
					}
				}
			}
		}
	}
}
MOTION
Frames:	4
Frame Time:	0.0333333
0.000000 0.000000 0.000000 0.000000 0.000000 -0.000000 127.844000 83.590300 146.764000 -81.304100 17.498300 175.759000 15.735700 0.000005 -0.000001 67.592300 82.561900 -64.295900 8.984550 -0.406207 -0.000000 6.183660 -5.700610 6.897970 16.377300 -0.000001 -0.000001 -0.096981 5.287410 1.481680 6.456720 -0.000001 -0.000000 -4.029580 12.567800 -0.801444 12.994200 -0.242716 4.980390 -90.480500 1.521890 -72.476500 5.348090 -0.000007 -0.000001 -69.267300 38.225700 -21.555800 24.328600 0.000019 0.000005 3.205230 0.976915 -73.449600 22.291600 -0.000001 0.000005 5.797180 5.507770 -6.830040 12.994500 -0.242716 -4.980390 87.191100 11.250800 -75.885000 -5.348130 -0.000001 -0.000004 -46.146500 43.639300 -1.689670 -24.328900 0.000322 -0.000009 -2.916720 -0.314334 -83.822400 -22.291500 -0.000108 -0.000004 23.386200 5.678700 -19.144900 -2.192480 -6.469440 -0.000000 -169.319000 1.870600 8.002930 39.081100 -0.000007 -0.000012 0.136672 -0.118577 49.054100 40.985400 -0.000006 -0.000013 7.872340 13.412700 -41.488400 11.754300 -0.000000 0.000003 -0.278556 -0.761987 -49.938900 -2.192510 6.469440 -0.000001 178.431000 12.756700 148.660000 -39.081100 -0.002282 -0.040193 -0.242322 0.192647 51.885600 -40.985400 0.000008 0.000006 -6.699750 5.510040 -70.364400 -11.754300 -0.000006 -0.000006 -0.001051 -0.016123 -17.228800
0.000000 0.000000 0.000000 0.000000 0.000000 -0.000000 130.691000 83.889300 142.786000 -81.717300 16.377200 177.787000 15.735700 0.000005 -0.000001 74.394100 82.505200 -70.894700 8.984550 -0.406207 -0.000000 6.817500 -4.048150 7.234970 16.377300 -0.000001 -0.000001 0.243996 4.746210 1.552670 6.456720 -0.000001 -0.000000 -3.409570 11.595100 -1.314730 12.994200 -0.242716 4.980390 -90.599100 1.920790 -72.674300 5.348090 -0.000007 -0.000001 -69.657800 35.487900 -11.607900 24.328600 0.000019 0.000005 13.298000 6.722540 -63.657700 22.291600 -0.000001 0.000005 8.269410 5.554980 -9.014160 12.994500 -0.242716 -4.980390 87.150100 11.718200 -76.228500 -5.348130 -0.000001 -0.000004 -48.575500 42.313200 -12.321200 -24.328900 0.000322 -0.000009 -2.648920 0.149485 -93.259000 -22.291500 -0.000108 -0.000004 24.048600 5.676370 -18.578900 -2.192480 -6.469440 -0.000000 -170.183000 3.403530 0.830491 39.081100 -0.000007 -0.000012 0.229028 -0.130818 60.264800 40.985400 -0.000006 -0.000013 0.480546 4.079380 -25.728000 11.754300 -0.000000 0.000003 -0.008702 -0.093680 -20.392300 -2.192510 6.469440 -0.000001 178.167000 14.305200 154.277000 -39.081100 -0.002282 -0.040193 -0.153427 0.120301 52.479900 -40.985400 0.000008 0.000006 -4.687050 5.725000 -74.771300 -11.754300 -0.000006 -0.000006 -0.000057 -0.000947 -16.612300
0.000000 0.000000 0.000000 0.000000 0.000000 -0.000000 132.656000 85.244800 138.878000 -82.965100 15.829500 178.610000 15.735700 0.000005 -0.000001 81.604000 82.783800 -78.336500 8.984550 -0.406207 -0.000000 6.584680 -2.134290 6.651290 16.377300 -0.000001 -0.000001 -0.032979 4.086050 2.078830 6.456720 -0.000001 -0.000000 -2.457180 9.867300 -1.572750 12.994200 -0.242716 4.980390 -90.622800 1.941070 -72.204800 5.348090 -0.000007 -0.000001 -65.058600 37.468000 -2.310020 24.328600 0.000019 0.000005 13.606700 6.059950 -66.452500 22.291600 -0.000001 0.000005 6.468370 5.590100 -10.768300 12.994500 -0.242716 -4.980390 87.834400 10.390900 -78.161400 -5.348130 -0.000001 -0.000004 -52.561900 42.140100 -21.965700 -24.328900 0.000322 -0.000009 -1.054980 0.203192 -100.918000 -22.291500 -0.000108 -0.000004 24.168000 5.667120 -16.952700 -2.192480 -6.469440 -0.000000 -173.217000 3.500780 -7.056600 39.081100 -0.000007 -0.000012 0.196372 -0.069980 70.384400 40.985400 -0.000006 -0.000013 1.910870 1.279540 -33.375300 11.754300 -0.000000 0.000003 -0.012435 -0.121025 -21.511100 -2.192510 6.469440 -0.000001 177.080000 13.306200 160.292000 -39.081100 -0.002282 -0.040193 -0.005540 0.007777 48.506600 -40.985400 0.000008 0.000006 -3.902800 3.895540 -76.425200 -11.754300 -0.000006 -0.000006 -0.111149 -0.135892 -16.632500
0.000000 0.000000 0.000000 0.000000 0.000000 -0.000000 134.016000 87.132600 134.595000 -84.538900 16.182200 179.610000 15.735700 0.000005 -0.000001 94.186600 82.962200 -91.467900 8.984550 -0.406207 -0.000000 6.255050 0.988946 5.377300 16.377300 -0.000001 -0.000001 0.329986 2.878810 2.609570 6.456720 -0.000001 -0.000000 -2.729870 6.643000 -1.344340 12.994200 -0.242716 4.980390 -90.121500 0.352420 -70.924300 5.348090 -0.000007 -0.000001 -60.969100 42.092600 4.844990 24.328600 0.000019 0.000005 9.160780 3.043330 -71.786900 22.291600 -0.000001 0.000005 5.651290 5.588630 -10.683800 12.994500 -0.242716 -4.980390 88.519200 7.748740 -79.147400 -5.348130 -0.000001 -0.000004 -55.056500 43.251700 -30.556700 -24.328900 0.000322 -0.000009 0.140966 -0.042968 -106.553000 -22.291500 -0.000108 -0.000004 23.320000 5.653950 -15.361000 -2.192480 -6.469440 -0.000000 -177.401000 2.041880 -12.787200 39.081100 -0.000007 -0.000012 0.111207 -0.030906 74.465500 40.985400 -0.000006 -0.000013 5.344400 0.223846 -43.421000 11.754300 -0.000000 0.000003 -0.012452 -0.121142 -21.515900 -2.192510 6.469440 -0.000001 174.823000 13.667700 167.809000 -39.081100 -0.002282 -0.040193 -0.040775 0.050142 41.299300 -40.985400 0.000008 0.000006 -4.038830 4.604250 -74.752900 -11.754300 -0.000006 -0.000006 -0.637250 -0.780955 -17.461200
